<svg id="tipshake_lower_logo" data-name="tipshake lower logo" xmlns="http://www.w3.org/2000/svg" xmlns:xlink="http://www.w3.org/1999/xlink" width="90" height="34.115" viewBox="0 0 90 34.115">
  <defs>
    <clipPath id="clip-path">
      <rect id="Rectangle_2135" data-name="Rectangle 2135" width="90" height="34.115" fill="none"/>
    </clipPath>
  </defs>
  <g id="Group_505" data-name="Group 505" clip-path="url(#clip-path)">
    <path id="Path_1316" data-name="Path 1316" d="M223.111,42.7a3.924,3.924,0,0,1-3.158-1.665q-.18.112-.371.218a6.973,6.973,0,0,1-3.387,1.006H216.1a4.263,4.263,0,0,1-4.036-3.1c-.143.481-.264.947-.365,1.405a2.124,2.124,0,0,1-2.114,1.758c-.151,0-.3.014-.452.024-.231.015-.492.032-.764.032a4.739,4.739,0,0,1-1.245-.152,2.409,2.409,0,0,1-1.878-2.744,20.937,20.937,0,0,1,1.366-4.861l.049-.132c1.868-5.019,4.117-9.868,6.293-14.558a2.191,2.191,0,0,1,1.892-1.3l.247-.02c.5-.04,1.014-.082,1.554-.082a8.471,8.471,0,0,1,1.012.057,2.369,2.369,0,0,1,1.946,1.166,2.429,2.429,0,0,1-.105,2.32c-.664,1.339-1.411,2.632-2.132,3.883q-.224.387-.451.782a4.569,4.569,0,0,1,1.1-.138h0a4.356,4.356,0,0,1,3.255,1.519,3.048,3.048,0,0,1,.767,1.431,12.036,12.036,0,0,1,2.688-2.025,5.682,5.682,0,0,1,2.008-.654,5.263,5.263,0,0,1,.724-.052,3.99,3.99,0,0,1,2.25.654,2.77,2.77,0,0,1,1.431-.363l.112,0c.177,0,.354.006.531.006l.455,0,.476,0c.162,0,.323,0,.484,0a2.208,2.208,0,0,1,1.881.981,2,2,0,0,1,.136.254c.842-1.909,1.715-3.771,2.573-5.58.269-.566.552-1.126.825-1.667.148-.292.3-.584.441-.877a2.192,2.192,0,0,1,1.518-1.26l.25-.054a12.326,12.326,0,0,1,2.684-.373h.111a2.5,2.5,0,0,1,2.313,1.16,2.475,2.475,0,0,1-.132,2.559q-.513.931-1.029,1.86c-.493.889-.992,1.789-1.487,2.7a7.016,7.016,0,0,1,1.925-.282,6.01,6.01,0,0,1,1.333.148,2.594,2.594,0,0,1,2,1.484q.166-.12.337-.236a5.758,5.758,0,0,1,3.245-1.056,5.54,5.54,0,0,1,2.9.847,4.563,4.563,0,0,1,2.139,5.054,8.205,8.205,0,0,1-.953,2.393c.049,0,.1-.006.149-.006a2,2,0,0,1,1.893,1.41,2.5,2.5,0,0,1-.569,2.829,10.081,10.081,0,0,1-6.956,3.187h-.13a6.408,6.408,0,0,1-4.542-1.785,7.863,7.863,0,0,1-3.433,1.681,3.894,3.894,0,0,1-.752.072,4.662,4.662,0,0,1-3.252-1.338,3.776,3.776,0,0,1-.766-1.11c0,.034-.005.067-.007.1a2.161,2.161,0,0,1-2.171,2.144c-.117.007-.234.018-.351.029-.243.023-.519.048-.817.048a4.2,4.2,0,0,1-.972-.107,3.29,3.29,0,0,1-1.178-.5,5.9,5.9,0,0,1-2.669.725,4.069,4.069,0,0,1-3.107-1.437c-.238.213-.488.421-.757.619a4.59,4.59,0,0,1-2.711.965m20.48-8.7a5.92,5.92,0,0,1,.677,1.988l.025-.01c.005-.03.011-.07.016-.122a11.691,11.691,0,0,1,.547-2.654c-.42.28-.844.543-1.265.8" transform="translate(-168.458 -15.216)"/>
    <path id="Path_1317" data-name="Path 1317" d="M245.641,40.625c.182.126.3.025.431-.037a8.9,8.9,0,0,0,4.536-4.387.588.588,0,0,1,.431-.349,4.95,4.95,0,0,1,2.573-.147c.933.213,1.12.534.49,1.265a16.6,16.6,0,0,1-4.238,3.26c-.479.286-.98.534-1.516.825a3.319,3.319,0,0,1,1.764,2.706c.015.089.039.176.058.264.279,1.329.71,1.545,1.962.98.049-.022.094-.056.144-.075a1.538,1.538,0,0,0,1.078-1.5,8.677,8.677,0,0,1,3.864-6.714,3.837,3.837,0,0,1,4.394-.167,2.947,2.947,0,0,1,1.4,3.3,6.526,6.526,0,0,1-2.579,3.89,2.725,2.725,0,0,1-3.328.154l-.426-.269a3.194,3.194,0,0,0-.229,1.215,1.1,1.1,0,0,0,.868,1.163,5.4,5.4,0,0,0,3.605-.287,11.873,11.873,0,0,0,2.522-1.358c.4-.27.585-.112.729.252a.9.9,0,0,1-.179,1.055,8.327,8.327,0,0,1-5.944,2.74,4.667,4.667,0,0,1-4.153-2.23c-.183-.292-.279-.258-.5-.043a7.222,7.222,0,0,1-3.663,2.2c-1.248.246-3.165-.633-3.15-2.278a11.317,11.317,0,0,0-.288-2.144,2.388,2.388,0,0,0-.711-1.315c-.305-.29-.507-.3-.693.142a14.825,14.825,0,0,0-1.239,4.8c-.032.472-.225.612-.648.637a5.68,5.68,0,0,1-1.674.01c-.69-.162-.909-.38-.982-1.137-.338.205-.647.406-.968.587-2.372,1.337-3.92.851-5.1-1.618a18.636,18.636,0,0,1-1.991,1.845,2.453,2.453,0,0,1-4.01-1.053c-.112-.245-.191-.506-.3-.791a14.7,14.7,0,0,1-1.754,1.247,5.284,5.284,0,0,1-2.666.8,2.629,2.629,0,0,1-2.539-3.181,19.105,19.105,0,0,1,1.948-4.5c.228-.45.475-.894.669-1.359.206-.494-.015-.78-.558-.725a2.872,2.872,0,0,0-1.823,1.084,15.079,15.079,0,0,0-2.807,5.206,24.8,24.8,0,0,0-.9,3.058.523.523,0,0,1-.572.488,6.847,6.847,0,0,1-2-.04.808.808,0,0,1-.689-.985,20.2,20.2,0,0,1,1.325-4.619c1.831-4.921,4.036-9.682,6.244-14.441a.588.588,0,0,1,.547-.361,12.64,12.64,0,0,1,2.494-.052c.773.092.945.418.58,1.155-1,2.007-2.182,3.908-3.264,5.867-.553,1-1.111,2-1.642,3.156.807-.463,1.5-.873,2.2-1.26a8.566,8.566,0,0,1,1.9-.786,2.688,2.688,0,0,1,2.839.89,1.285,1.285,0,0,1,.21,1.593c-.556,1.078-1.261,2.064-1.877,3.1a13.269,13.269,0,0,0-1.263,2.508,3.069,3.069,0,0,0-.159.684c-.063.672.182.9.862.8a7.627,7.627,0,0,0,2.4-.979c.264-.142.187-.4.223-.625a9.8,9.8,0,0,1,5.047-7.362,4.065,4.065,0,0,1,1.438-.463,2.53,2.53,0,0,1,2.919,1.738,4.662,4.662,0,0,0,.316-.779c.115-.582.493-.717,1.017-.7.652.017,1.305-.006,1.958.006.542.01.738.322.507.831-.268.591-.571,1.165-.859,1.747a49.552,49.552,0,0,0-2.156,4.662,4.772,4.772,0,0,0-.32,1.2.607.607,0,0,0,.579.758,4.106,4.106,0,0,0,2.577-.832c.076-.046.1-.185.137-.287a119.75,119.75,0,0,1,5.621-13.351c.4-.847.837-1.678,1.254-2.517.09-.181.178-.346.406-.4a11.9,11.9,0,0,1,2.679-.391c.971.015,1.251.469.785,1.315-1.819,3.3-3.69,6.578-5.331,9.975l-.838,1.732m-14.458,4.123c0,.108-.006.217,0,.326.053.858.533,1.148,1.325.792a2.888,2.888,0,0,0,.96-.7,12.01,12.01,0,0,0,2.831-5.7c.092-.433.131-.894-.321-1.169a1.147,1.147,0,0,0-1.27.167,5.862,5.862,0,0,0-1.557,1.5,8.93,8.93,0,0,0-1.97,4.784m26.164-3.528c0,.6.406.884,1.029.718a3.428,3.428,0,0,0,2.157-2.752c.009-.746-.4-1.121-1.019-.924a3.8,3.8,0,0,0-2.167,2.958" transform="translate(-175.888 -22.647)" fill="#fff"/>
    <path id="Path_1318" data-name="Path 1318" d="M129.124,33.654c-.216,0-.434-.009-.649-.028a2.521,2.521,0,0,1-1.964-1.1,2.548,2.548,0,0,1-.2-2.267c.283-.812.6-1.591.933-2.333a6.919,6.919,0,0,1-2.974-2.179,4.7,4.7,0,0,1-.333-5.532,6.588,6.588,0,0,1,3.487-2.765,4.453,4.453,0,0,1-.82-4.043A10.147,10.147,0,0,1,130.768,7.3a10.955,10.955,0,0,1,3.8-1.837A20.136,20.136,0,0,1,136.31,1.51,2.757,2.757,0,0,1,138.225.179a5.93,5.93,0,0,1,1.359-.168c.066,0,.132,0,.2,0,.131-.011.26-.016.384-.016a2.592,2.592,0,0,1,2.468,1.279,2.827,2.827,0,0,1-.382,3.029c-.385.589-.743,1.211-1.093,1.853a6.642,6.642,0,0,1,2.246,2,4.125,4.125,0,0,1,.33,4.472c-.9,1.773-1.93,2.885-4.266,2.925a6.1,6.1,0,0,1,1.874,3.02,7.132,7.132,0,0,1-1.9,6.682,10.726,10.726,0,0,1-5.088,2.951,10.212,10.212,0,0,1-1.406,3.518c-.095.169-.19.339-.282.509a2.567,2.567,0,0,1-1.794,1.217,7.645,7.645,0,0,1-1.751.2m4.333-13.878a4.17,4.17,0,0,1,.181.759,1.957,1.957,0,0,0,.095-.418,1.169,1.169,0,0,0,.008-.2,1.2,1.2,0,0,0-.186-.1l-.1-.042m1.355-6.268c.258.078.531.147.816.219l-.016-.036a2.807,2.807,0,0,1-.25-1.173,3.786,3.786,0,0,0-.55.99" transform="translate(-101.119)"/>
    <path id="Path_1319" data-name="Path 1319" d="M147.22,9.073c1.315-.141,1.937.467,1.081,1.778-.661,1.012-1.23,2.081-1.792,3.153-.153.292-.19.416.2.544a5.323,5.323,0,0,1,2.78,1.977,2.53,2.53,0,0,1,.207,2.8c-.9,1.769-1.6,2.167-3.729,2a1.579,1.579,0,0,1-1.465-.867,1.417,1.417,0,0,1,.411-1.581,4.016,4.016,0,0,0,.654-.861c.343-.7.046-1.187-.737-1.183a1.322,1.322,0,0,0-.481.073,6,6,0,0,0-3.711,3.63c-.387,1.135-.159,1.549.974,1.908.619.2,1.258.326,1.881.51,4.5,1.329,4.8,5.894,2.189,8.6a9.244,9.244,0,0,1-5.1,2.679c-.3.056-.384.145-.38.439.025,1.6-.834,2.883-1.556,4.21a1.044,1.044,0,0,1-.741.413,5.985,5.985,0,0,1-1.889.139.821.821,0,0,1-.773-1.219,35.455,35.455,0,0,1,1.378-3.292c.283-.608.282-.607-.348-.76a5.779,5.779,0,0,1-3.328-2,3.059,3.059,0,0,1-.222-3.684,4.9,4.9,0,0,1,4.715-2.281,2.3,2.3,0,0,1,2.023,2.313c.007.27-.055.337-.324.32a5.771,5.771,0,0,0-1.99.2,3.565,3.565,0,0,0-.7.285,1.14,1.14,0,0,0-.646,1.157,1.22,1.22,0,0,0,.829,1.16,3.846,3.846,0,0,0,2.14.126,5.125,5.125,0,0,0,3.975-4.042,1.692,1.692,0,0,0-1.111-1.947,17.72,17.72,0,0,0-3.049-.735c-.314-.083-.635-.148-.942-.252a2.755,2.755,0,0,1-2.055-3.611,8.632,8.632,0,0,1,3.549-5.148,9.281,9.281,0,0,1,3.778-1.691.5.5,0,0,0,.475-.456,16.426,16.426,0,0,1,1.75-4.177,1.188,1.188,0,0,1,.858-.518,4.074,4.074,0,0,1,1.214-.116" transform="translate(-108.526 -7.431)" fill="#fff"/>
    <path id="Path_1320" data-name="Path 1320" d="M13,73.985a2.531,2.531,0,0,1-.5-.051c-.074-.006-.139-.014-.2-.024a3.4,3.4,0,0,1-2.487-1.286,3.266,3.266,0,0,1-.126-2.747c.163-.585.333-1.172.5-1.754a3.6,3.6,0,0,1-2.5-1.04,8.618,8.618,0,0,1-1.03.556,8.006,8.006,0,0,1-2.076.622,4.332,4.332,0,0,1-.652.05h0A3.891,3.891,0,0,1,.179,63.232a30.962,30.962,0,0,1,1.719-4.2l.017-.037a2.246,2.246,0,0,1-.341-.672,3.172,3.172,0,0,1,.411-2.67A1.959,1.959,0,0,1,3.714,54.7a2.83,2.83,0,0,1,.337.022c.017-.032.036-.071.058-.119.5-1.1,1.049-2.172,1.579-3.212.236-.464.473-.928.7-1.393L6.4,49.98a1.942,1.942,0,0,1,1.676-1.241c.161-.012.342-.037.534-.064a8.206,8.206,0,0,1,1.156-.1c.11,0,.219,0,.325.011a2.22,2.22,0,0,1,1.879,3.47q-.725,1.29-1.458,2.577l.1-.033a6.476,6.476,0,0,1,1.814-.267,5.945,5.945,0,0,1,1.448.179,2.127,2.127,0,0,1,.728.333,2.194,2.194,0,0,1,1.272-.491l.287-.022c.271-.021.551-.042.839-.056.078,0,.15-.005.218-.005a2.364,2.364,0,0,1,1.312.348,3.855,3.855,0,0,1,1.707-.414,3.387,3.387,0,0,1,3.338,3.268,11.661,11.661,0,0,1-2.691,8.874,4.544,4.544,0,0,1-3.431,1.68,3.914,3.914,0,0,1-1.165-.177c-.4,1.435-.81,2.908-1.191,4.359A2.113,2.113,0,0,1,13,73.985" transform="translate(0 -39.87)"/>
    <path id="Path_1321" data-name="Path 1321" d="M22.75,72.723c-.6,2.167-1.218,4.329-1.788,6.5-.119.453-.291.645-.75.539-.07-.016-.144-.013-.216-.025-1.513-.251-1.721-.542-1.316-2,.421-1.511.883-3.011,1.332-4.515a.53.53,0,0,0,.047-.362c-2.361,1.849-3.7,1.053-4.594-.581a10.509,10.509,0,0,1-2.036,1.305,6.342,6.342,0,0,1-1.655.5,2.284,2.284,0,0,1-2.609-2.958,38.435,38.435,0,0,1,2.054-4.881c.082-.179.163-.358.26-.573-.393,0-.8-.012-.928-.419a1.622,1.622,0,0,1,.259-1.342c.136-.228.412-.161.6-.141.853.089,1.272-.328,1.611-1.07.7-1.541,1.5-3.038,2.26-4.556.08-.16.116-.344.349-.361a12.531,12.531,0,0,1,1.784-.154c.708.049.922.445.577,1.058-.8,1.416-1.6,2.826-2.4,4.24-.087.154-.167.311-.269.5.393.039.746.058,1.092.115.314.051.59.221.483.58-.1.333.059.846-.536.908a6.782,6.782,0,0,1-1.018.152c-.9-.049-1.325.442-1.654,1.2A25.81,25.81,0,0,0,12.1,70.351c-.264,1.068.01,1.453,1.264,1.243a6.082,6.082,0,0,0,1.912-.879.556.556,0,0,0,.249-.394,41.538,41.538,0,0,1,2.768-6.51c.044-.1.083-.187.21-.224a4.534,4.534,0,0,1,2.413-.072c.364.092.348.384.218.651-.246.5-.51,1-.781,1.484a33.477,33.477,0,0,0-2.056,3.99,7.221,7.221,0,0,0-.34,1.138c-.112.533.224.928.719.759,1.079-.368,2.167-.706,2.524-2.061.5-1.9,1.144-3.761,1.7-5.646a.515.515,0,0,1,.527-.427c.361-.026.722-.058,1.083-.075.627-.029.765.106.777.741,0,.16,0,.32,0,.483.214.03.239-.159.341-.24.212-.168.391-.378.609-.537,1.429-1.038,2.989-.469,3.159,1.284a9.978,9.978,0,0,1-2.314,7.668,2.563,2.563,0,0,1-4.2.028c-.015-.02-.063-.016-.132-.032m.594-2.065c0,.782.447,1.194,1.19,1.078a1.293,1.293,0,0,0,.805-.594,10.17,10.17,0,0,0,1.6-3.514,4.243,4.243,0,0,0,.216-1.436.661.661,0,0,0-1.024-.6,2.672,2.672,0,0,0-.926.818,10.3,10.3,0,0,0-1.616,3.038,3.265,3.265,0,0,0-.243,1.213" transform="translate(-7.432 -47.301)" fill="#fff"/>
    <path id="Path_1322" data-name="Path 1322" d="M61.279,61.192a2.768,2.768,0,0,1-2.859-2.862,4.445,4.445,0,0,1,2.555-3.922,3.11,3.11,0,0,1,1.223-.257A2.829,2.829,0,0,1,64.882,56.1a4.018,4.018,0,0,1-3.571,5.09h-.032" transform="translate(-47.953 -44.45)"/>
    <path id="Path_1323" data-name="Path 1323" d="M68.727,67a1.166,1.166,0,0,1-1.254-1.25,2.846,2.846,0,0,1,1.568-2.419,1.234,1.234,0,0,1,1.747.755A2.417,2.417,0,0,1,68.727,67" transform="translate(-55.384 -51.881)" fill="#fff"/>
  </g>
</svg>
