<svg xmlns="http://www.w3.org/2000/svg" xmlns:xlink="http://www.w3.org/1999/xlink" width="68" height="68" viewBox="0 0 68 68">
  <defs>
    <filter id="Ellipse_31" x="0" y="0" width="68" height="68" filterUnits="userSpaceOnUse">
      <feOffset dy="3" input="SourceAlpha"/>
      <feGaussianBlur stdDeviation="3" result="blur"/>
      <feFlood flood-opacity="0.161"/>
      <feComposite operator="in" in2="blur"/>
    </filter>
    <filter id="Ellipse_31-2" x="0" y="0" width="68" height="68" filterUnits="userSpaceOnUse">
      <feOffset dx="-3" dy="-3" input="SourceAlpha"/>
      <feGaussianBlur stdDeviation="3" result="blur-2"/>
      <feFlood flood-color="#fff" flood-opacity="0.161" result="color"/>
      <feComposite operator="out" in="SourceGraphic" in2="blur-2"/>
      <feComposite operator="in" in="color"/>
      <feComposite operator="in" in2="SourceGraphic"/>
    </filter>
    <filter id="Path_132" x="13" y="17.775" width="26.971" height="34.272" filterUnits="userSpaceOnUse">
      <feOffset dy="3" input="SourceAlpha"/>
      <feGaussianBlur stdDeviation="3" result="blur-3"/>
      <feFlood flood-opacity="0.161"/>
      <feComposite operator="in" in2="blur-3"/>
      <feComposite in="SourceGraphic"/>
    </filter>
    <filter id="Path_133" x="19.43" y="10" width="35.567" height="48" filterUnits="userSpaceOnUse">
      <feOffset dy="3" input="SourceAlpha"/>
      <feGaussianBlur stdDeviation="3" result="blur-4"/>
      <feFlood flood-opacity="0.161"/>
      <feComposite operator="in" in2="blur-4"/>
      <feComposite in="SourceGraphic"/>
    </filter>
  </defs>
  <g id="tip_button" data-name="tip button" transform="translate(9 6)">
    <g data-type="innerShadowGroup">
      <g transform="matrix(1, 0, 0, 1, -9, -6)" filter="url(#Ellipse_31)">
        <g id="Ellipse_31-3" data-name="Ellipse 31" transform="translate(9 6)" fill="#1e4579" stroke="#fff" stroke-width="1">
          <circle cx="25" cy="25" r="25" stroke="none"/>
          <circle cx="25" cy="25" r="24.5" fill="none"/>
        </g>
      </g>
      <circle id="Ellipse_31-4" data-name="Ellipse 31" cx="25" cy="25" r="25" fill="#1e4579"/>
      <g transform="matrix(1, 0, 0, 1, -9, -6)" filter="url(#Ellipse_31-2)">
        <circle id="Ellipse_31-5" data-name="Ellipse 31" cx="25" cy="25" r="25" transform="translate(9 6)" fill="#fff"/>
      </g>
      <g id="Ellipse_31-6" data-name="Ellipse 31" fill="none" stroke="#fff" stroke-width="1">
        <circle cx="25" cy="25" r="25" stroke="none"/>
        <circle cx="25" cy="25" r="24.5" fill="none"/>
      </g>
    </g>
    <g id="Group_242" data-name="Group 242" transform="translate(13 10)">
      <g id="Group_507" data-name="Group 507">
        <g transform="matrix(1, 0, 0, 1, -22, -16)" filter="url(#Path_132)">
          <path id="Path_132-2" data-name="Path 132" d="M6.324,208.127a10.361,10.361,0,0,1-2.008,1.288,6.258,6.258,0,0,1-1.633.491,2.253,2.253,0,0,1-2.574-2.918,37.909,37.909,0,0,1,2.027-4.816c.081-.176.16-.353.257-.565-.387,0-.786-.012-.915-.414a1.6,1.6,0,0,1,.256-1.324c.134-.224.406-.158.587-.139.842.088,1.255-.324,1.589-1.056.694-1.52,1.483-3,2.229-4.494.079-.158.115-.34.344-.356a12.36,12.36,0,0,1,1.76-.152c.7.048.91.439.57,1.043-.785,1.4-1.579,2.788-2.368,4.183-.086.152-.165.307-.266.5.388.039.736.057,1.077.113.31.051.582.217.477.572-.1.328.059.834-.529.9a6.673,6.673,0,0,1-1,.15c-.891-.048-1.307.436-1.631,1.188A25.477,25.477,0,0,0,3,206.218c-.26,1.053.01,1.433,1.247,1.226a6,6,0,0,0,1.886-.867.549.549,0,0,0,.245-.389" transform="translate(22 -169.89)" fill="#fff"/>
        </g>
        <g transform="matrix(1, 0, 0, 1, -22, -16)" filter="url(#Path_133)">
          <path id="Path_133-2" data-name="Path 133" d="M174.975.02c1.3-.139,1.911.461,1.066,1.754-.652,1-1.214,2.053-1.767,3.11-.151.288-.188.411.195.537a5.251,5.251,0,0,1,2.743,1.95,2.5,2.5,0,0,1,.2,2.765c-.883,1.745-1.58,2.137-3.679,1.975a1.557,1.557,0,0,1-1.445-.855A1.4,1.4,0,0,1,172.7,9.7a3.97,3.97,0,0,0,.645-.849c.339-.693.045-1.171-.727-1.167a1.305,1.305,0,0,0-.474.072,5.916,5.916,0,0,0-3.66,3.581c-.382,1.12-.157,1.528.961,1.882.611.193,1.241.322,1.856.5,4.442,1.311,4.733,5.815,2.16,8.486a9.121,9.121,0,0,1-5.028,2.643c-.294.055-.379.143-.375.433.025,1.578-.823,2.844-1.535,4.153a1.03,1.03,0,0,1-.731.407,5.9,5.9,0,0,1-1.864.137.81.81,0,0,1-.762-1.2,35,35,0,0,1,1.359-3.247c.279-.6.278-.6-.343-.75a5.7,5.7,0,0,1-3.283-1.971,3.018,3.018,0,0,1-.219-3.635,4.839,4.839,0,0,1,4.652-2.25,2.264,2.264,0,0,1,2,2.282c.007.266-.054.332-.32.316a5.694,5.694,0,0,0-1.963.2,3.516,3.516,0,0,0-.689.281,1.125,1.125,0,0,0-.637,1.141,1.2,1.2,0,0,0,.818,1.144,3.794,3.794,0,0,0,2.111.124,5.056,5.056,0,0,0,3.921-3.988,1.669,1.669,0,0,0-1.1-1.92,17.46,17.46,0,0,0-3.007-.725c-.31-.082-.626-.146-.929-.249a2.718,2.718,0,0,1-2.028-3.562,8.516,8.516,0,0,1,3.5-5.079,9.156,9.156,0,0,1,3.727-1.668.49.49,0,0,0,.468-.45A16.2,16.2,0,0,1,172.93.645a1.172,1.172,0,0,1,.847-.511,4.018,4.018,0,0,1,1.2-.114" transform="translate(-131.74 16)" fill="#fff"/>
        </g>
      </g>
    </g>
  </g>
</svg>
