<svg xmlns="http://www.w3.org/2000/svg" width="29.449" height="20.571" viewBox="0 0 29.449 20.571">
  <path id="Icon_metro-books" data-name="Icon metro-books" d="M8.571,8.571H3.429a.86.86,0,0,0-.857.857V28.286a.86.86,0,0,0,.857.857H8.571a.86.86,0,0,0,.857-.857V9.429a.86.86,0,0,0-.857-.857Zm-.857,5.143H4.286V12H7.714v1.714Zm9.429-5.143H12a.86.86,0,0,0-.857.857V28.286a.86.86,0,0,0,.857.857h5.143A.86.86,0,0,0,18,28.286V9.429a.86.86,0,0,0-.857-.857Zm-.857,5.143H12.857V12h3.429ZM23.065,9.9l-4.593,2.314a.86.86,0,0,0-.38,1.151l7.714,15.309a.86.86,0,0,0,1.151.38l4.593-2.314a.86.86,0,0,0,.38-1.151L24.216,10.277a.86.86,0,0,0-1.151-.38Zm4.364,18.389a.857.857,0,1,1-.857-.857A.857.857,0,0,1,27.429,28.286Z" transform="translate(-2.571 -8.571)" fill="#fff"/>
</svg>
