<svg xmlns="http://www.w3.org/2000/svg" xmlns:xlink="http://www.w3.org/1999/xlink" width="34.189" height="41" viewBox="0 0 34.189 41"><defs><style>.a{fill:none;}.b{clip-path:url(#a);}.c{fill:#1e4579;}.d{fill:#fe0707;}.e{fill:#fff;}.f{fill:#030303;}</style><clipPath id="a"><rect class="a" width="34.189" height="41"/></clipPath></defs><g class="b"><path class="c" d="M6.06,219.1a6.008,6.008,0,0,1-5.788-7.815,31.635,31.635,0,0,1,1.68-4.22c-.039-.1-.075-.2-.108-.3a5.2,5.2,0,0,1,.615-4.342,3.828,3.828,0,0,1,2.665-1.816c.475-1,.958-1.943,1.427-2.865q.4-.773.784-1.548h0a3.826,3.826,0,0,1,3.237-2.315c.151-.011.316-.035.491-.06a9.594,9.594,0,0,1,2.012-.113,4.128,4.128,0,0,1,3.42,6.34q-.814,1.449-1.635,2.893l-2.871-1.627q.817-1.44,1.63-2.882A.865.865,0,0,0,12.84,197a5.968,5.968,0,0,0-1.316.089c-.259.036-.5.068-.709.083s-.365.136-.487.412l-.039.085c-.262.525-.528,1.049-.8,1.573-.584,1.146-1.188,2.332-1.738,3.535-.04.088-.077.163-.11.225l-.53.993L6,203.86a1.507,1.507,0,0,0-.184-.013.54.54,0,0,0-.519.266,1.878,1.878,0,0,0-.307,1.642.9.9,0,0,0,.128.263l.6.8-.424.9a33.665,33.665,0,0,0-1.858,4.521,2.725,2.725,0,0,0,3.111,3.526,7.28,7.28,0,0,0,1.9-.57,8.124,8.124,0,0,0,.957-.518l1.75,2.8A11.357,11.357,0,0,1,9.8,218.2a10.63,10.63,0,0,1-2.756.824,6.443,6.443,0,0,1-.98.076" transform="translate(0 -184.859)"/><path class="d" d="M44.132,255.307a4.191,4.191,0,0,1-4.047-5.473A34.5,34.5,0,0,1,42,245.151l.065-.139a2.273,2.273,0,0,1-.42-.778,3.391,3.391,0,0,1,.445-2.855,2.032,2.032,0,0,1,1.792-.988,3.432,3.432,0,0,1,.425.031l.043,0a2.273,2.273,0,0,0,.126-.242c.558-1.223,1.17-2.425,1.763-3.588.266-.521.532-1.043.793-1.568a2,2,0,0,1,1.745-1.313c.2-.015.407-.044.61-.072a8.967,8.967,0,0,1,1.272-.113c.118,0,.235,0,.354.012a2.32,2.32,0,0,1,1.97,3.639q-.891,1.584-1.791,3.165l-.13.229a2.111,2.111,0,0,1,.622.634,2.078,2.078,0,0,1,.236,1.653l-.006.06a2.193,2.193,0,0,1-2.026,2.2,2.611,2.611,0,0,0-.272.052,4.311,4.311,0,0,1-.968.129l-.223,0a2.022,2.022,0,0,0-.184.353c-.168.391-.346.779-.524,1.166-.326.712-.64,1.4-.885,2.084.155-.085.317-.18.483-.277l.363-.21a1.151,1.151,0,0,0-.5.59l3.251.441-.085,2.987-.623.478a13.265,13.265,0,0,1-2.607,1.656,8.8,8.8,0,0,1-2.282.685,4.7,4.7,0,0,1-.7.054" transform="translate(-38.073 -222.885)"/><path class="c" d="M168.79,41c-.289,0-.582-.013-.87-.038A4.36,4.36,0,0,1,164.079,35c.145-.417.3-.841.481-1.286a9.248,9.248,0,0,1-2.5-2.206,6.944,6.944,0,0,1-.487-8.077,8.872,8.872,0,0,1,2.988-2.965,7.22,7.22,0,0,1-.2-4.152A12.946,12.946,0,0,1,169.648,8.5a14.01,14.01,0,0,1,3.937-2.067,27.43,27.43,0,0,1,1.8-3.871A4.664,4.664,0,0,1,178.6.246,8.285,8.285,0,0,1,180.51.014l.186,0c.159-.01.313-.016.465-.016a4.538,4.538,0,0,1,4.216,2.3,4.762,4.762,0,0,1-.5,5.08c-.138.21-.275.43-.418.666a9.026,9.026,0,0,1,1.675,1.792,6.266,6.266,0,0,1,.5,6.707,7.208,7.208,0,0,1-3.328,3.574,8.393,8.393,0,0,1,.772,1.917,9.65,9.65,0,0,1-2.534,9.053,13.538,13.538,0,0,1-5.478,3.46,15.3,15.3,0,0,1-1.541,3.442c-.106.19-.209.373-.309.556a4.511,4.511,0,0,1-3.077,2.182A10.264,10.264,0,0,1,168.79,41" transform="translate(-153.186 0)"/><path class="e" d="M44.837,250.595a9.665,9.665,0,0,1-1.154.623,8.966,8.966,0,0,1-2.326.7,4.832,4.832,0,0,1-.73.056h0a4.358,4.358,0,0,1-4.207-5.69,34.687,34.687,0,0,1,1.926-4.705l.02-.042a2.511,2.511,0,0,1-.382-.752,3.553,3.553,0,0,1,.46-2.991,2.195,2.195,0,0,1,1.936-1.071,3.194,3.194,0,0,1,.377.024c.019-.036.041-.08.065-.134.56-1.227,1.175-2.433,1.769-3.6.265-.52.53-1.039.79-1.561l.006-.015a2.175,2.175,0,0,1,1.877-1.391c.18-.013.383-.041.6-.071a9.192,9.192,0,0,1,1.3-.114c.123,0,.246,0,.364.012a2.487,2.487,0,0,1,2.105,3.888q-.812,1.445-1.633,2.887" transform="translate(-34.567 -219.382)"/><path class="f" d="M83.264,286.141a11.765,11.765,0,0,1-2.281,1.462,7.107,7.107,0,0,1-1.854.557,2.559,2.559,0,0,1-2.923-3.313,43.048,43.048,0,0,1,2.3-5.468c.092-.2.182-.4.291-.641-.44,0-.893-.014-1.039-.47a1.817,1.817,0,0,1,.29-1.5c.152-.255.461-.18.667-.158.956.1,1.425-.368,1.8-1.2.788-1.726,1.684-3.4,2.532-5.1.09-.18.131-.386.391-.4a14.046,14.046,0,0,1,2-.172c.793.055,1.033.5.647,1.185-.891,1.586-1.793,3.166-2.689,4.75-.1.172-.187.349-.3.564.44.044.835.065,1.223.129.352.057.661.247.541.65-.11.372.067.947-.6,1.017a7.576,7.576,0,0,1-1.14.171c-1.012-.055-1.484.5-1.853,1.349a28.931,28.931,0,0,0-1.779,4.435c-.3,1.2.012,1.627,1.416,1.392a6.815,6.815,0,0,0,2.142-.985.623.623,0,0,0,.278-.441" transform="translate(-72.615 -257.423)"/><path class="d" d="M206.695,77.23q-.356,0-.713-.031a2.66,2.66,0,0,1-2.074-1.158,2.69,2.69,0,0,1-.208-2.393c.337-.967.721-1.889,1.112-2.763a7.622,7.622,0,0,1-3.424-2.452,5.1,5.1,0,0,1-.362-6.006,7.223,7.223,0,0,1,4.07-3.108,4.765,4.765,0,0,1-1.061-4.571,11.211,11.211,0,0,1,4.6-6.741,12.1,12.1,0,0,1,4.293-2.053,22.025,22.025,0,0,1,1.964-4.487,2.936,2.936,0,0,1,2.035-1.406,6.453,6.453,0,0,1,1.485-.183q.112,0,.225,0c.148-.012.291-.019.427-.019a2.742,2.742,0,0,1,2.618,1.345,3.009,3.009,0,0,1-.421,3.221c-.466.714-.894,1.464-1.312,2.235a7.3,7.3,0,0,1,2.607,2.266,4.463,4.463,0,0,1,.356,4.837c-.995,1.966-2.141,3.185-4.775,3.185-.1,0-.2,0-.3,0a6.663,6.663,0,0,1,2.383,3.6,7.823,7.823,0,0,1-2.085,7.327,11.875,11.875,0,0,1-5.73,3.287,11.1,11.1,0,0,1-1.569,3.991l-.317.574a2.723,2.723,0,0,1-1.9,1.28,8.341,8.341,0,0,1-1.923.226m1.534-11.818a3.144,3.144,0,0,0,.644-.07l.11-.025a4.535,4.535,0,0,0-.834.094h.081m3.034-3.84a4.537,4.537,0,0,1,.371,1.705c0,.021,0,.041,0,.061a2.717,2.717,0,0,0,.391-1.088.925.925,0,0,0,0-.333,1.268,1.268,0,0,0-.294-.173,3.529,3.529,0,0,0-.466-.172m1.623-6.625c.35.111.706.2,1.063.291l.356.091a3.26,3.26,0,0,1-.189-.362,2.909,2.909,0,0,1-.211-1.755,4.408,4.408,0,0,0-1.048,1.705.152.152,0,0,0-.006.02l.035.01" transform="translate(-191.09 -38.047)"/><path class="e" d="M203.171,73.9c-.242,0-.486-.011-.728-.031a2.823,2.823,0,0,1-2.2-1.234,2.854,2.854,0,0,1-.225-2.54c.317-.909.677-1.782,1.045-2.614a7.752,7.752,0,0,1-3.331-2.441,5.263,5.263,0,0,1-.373-6.2,7.381,7.381,0,0,1,3.907-3.1,4.989,4.989,0,0,1-.918-4.529,11.368,11.368,0,0,1,4.666-6.841,12.272,12.272,0,0,1,4.257-2.057,22.555,22.555,0,0,1,1.951-4.427,3.09,3.09,0,0,1,2.145-1.491,6.652,6.652,0,0,1,1.523-.188c.074,0,.148,0,.221,0,.147-.012.291-.018.43-.018a2.9,2.9,0,0,1,2.765,1.432,3.166,3.166,0,0,1-.428,3.393c-.431.66-.832,1.357-1.224,2.076a7.439,7.439,0,0,1,2.516,2.237,4.622,4.622,0,0,1,.37,5.009c-1.005,1.987-2.162,3.231-4.778,3.276A6.84,6.84,0,0,1,216.86,57a7.99,7.99,0,0,1-2.127,7.485,12.018,12.018,0,0,1-5.7,3.305,11.441,11.441,0,0,1-1.575,3.941c-.106.19-.212.379-.316.57a2.875,2.875,0,0,1-2.01,1.363,8.565,8.565,0,0,1-1.962.229m4.854-15.547a4.671,4.671,0,0,1,.2.851,2.2,2.2,0,0,0,.106-.468,1.292,1.292,0,0,0,.008-.22,1.331,1.331,0,0,0-.208-.115l-.109-.048m1.517-7.022c.289.087.594.164.915.245l-.018-.041a3.142,3.142,0,0,1-.28-1.314,4.236,4.236,0,0,0-.617,1.109" transform="translate(-187.567 -34.546)"/><path class="f" d="M253.065,76.077c1.473-.158,2.169.524,1.21,1.992-.741,1.134-1.378,2.331-2.007,3.532-.171.327-.213.467.221.609a5.963,5.963,0,0,1,3.115,2.214,2.834,2.834,0,0,1,.232,3.14c-1,1.982-1.794,2.427-4.177,2.243a1.769,1.769,0,0,1-1.641-.971,1.588,1.588,0,0,1,.46-1.771,4.51,4.51,0,0,0,.732-.965c.385-.787.051-1.33-.825-1.325a1.482,1.482,0,0,0-.538.081,6.718,6.718,0,0,0-4.157,4.067c-.434,1.271-.179,1.735,1.092,2.137.693.219,1.41.365,2.108.571,5.045,1.489,5.374,6.6,2.452,9.637a10.357,10.357,0,0,1-5.709,3c-.333.063-.431.162-.426.491.028,1.792-.935,3.23-1.743,4.716a1.17,1.17,0,0,1-.83.463,6.7,6.7,0,0,1-2.117.156.919.919,0,0,1-.865-1.366,39.745,39.745,0,0,1,1.543-3.688c.317-.681.316-.68-.39-.851a6.474,6.474,0,0,1-3.729-2.238,3.427,3.427,0,0,1-.248-4.127,5.5,5.5,0,0,1,5.282-2.555,2.571,2.571,0,0,1,2.266,2.592c.008.3-.061.377-.363.359a6.464,6.464,0,0,0-2.229.222,3.993,3.993,0,0,0-.782.319,1.277,1.277,0,0,0-.723,1.3,1.367,1.367,0,0,0,.929,1.3,4.309,4.309,0,0,0,2.4.141,5.741,5.741,0,0,0,4.453-4.528,1.9,1.9,0,0,0-1.244-2.181,19.827,19.827,0,0,0-3.415-.823c-.352-.093-.711-.166-1.055-.282a3.086,3.086,0,0,1-2.3-4.045,9.67,9.67,0,0,1,3.975-5.767,10.4,10.4,0,0,1,4.233-1.894.556.556,0,0,0,.532-.511,18.4,18.4,0,0,1,1.96-4.679,1.331,1.331,0,0,1,.962-.58,4.562,4.562,0,0,1,1.36-.13" transform="translate(-225.485 -72.588)"/><path class="d" d="M379.233,732.094v.034l.054-.016Z" transform="translate(-361.945 -698.721)"/></g></svg>