<svg xmlns="http://www.w3.org/2000/svg" width="23" height="23" viewBox="0 0 23 23">
  <path id="Icon_material-language" data-name="Icon material-language" d="M14.488,3A11.5,11.5,0,1,0,26,14.5,11.494,11.494,0,0,0,14.488,3Zm7.97,6.9H19.066a18,18,0,0,0-1.587-4.094A9.234,9.234,0,0,1,22.458,9.9ZM14.5,5.346A16.2,16.2,0,0,1,16.7,9.9H12.3A16.2,16.2,0,0,1,14.5,5.346ZM5.6,16.8a9,9,0,0,1,0-4.6H9.486a18.993,18.993,0,0,0-.161,2.3,18.993,18.993,0,0,0,.161,2.3Zm.943,2.3H9.934a18,18,0,0,0,1.587,4.094A9.185,9.185,0,0,1,6.542,19.1ZM9.934,9.9H6.542a9.185,9.185,0,0,1,4.979-4.094A18,18,0,0,0,9.934,9.9ZM14.5,23.654A16.2,16.2,0,0,1,12.3,19.1H16.7A16.2,16.2,0,0,1,14.5,23.654ZM17.191,16.8H11.809a16.92,16.92,0,0,1-.184-2.3,16.773,16.773,0,0,1,.184-2.3h5.382a16.773,16.773,0,0,1,.184,2.3A16.92,16.92,0,0,1,17.191,16.8Zm.288,6.394A18,18,0,0,0,19.066,19.1h3.392a9.234,9.234,0,0,1-4.979,4.094ZM19.514,16.8a18.993,18.993,0,0,0,.161-2.3,18.993,18.993,0,0,0-.161-2.3H23.4a9,9,0,0,1,0,4.6Z" transform="translate(-3 -3)" fill="#fff"/>
</svg>
