<svg id="scanqr-button" xmlns="http://www.w3.org/2000/svg" xmlns:xlink="http://www.w3.org/1999/xlink" width="27.695" height="27.666" viewBox="0 0 27.695 27.666">
  <defs>
    <clipPath id="clip-path">
      <rect id="Rectangle_1525" data-name="Rectangle 1525" width="27.695" height="27.666" fill="none"/>
    </clipPath>
  </defs>
  <g id="Group_264" data-name="Group 264" clip-path="url(#clip-path)">
    <path id="Path_138" data-name="Path 138" d="M127.1,6.837a10.8,10.8,0,0,1-.2,1.609,1.375,1.375,0,0,1-1.633.875,1.35,1.35,0,0,1-1.252-1.272A10.042,10.042,0,0,1,124,6.686a3.22,3.22,0,0,0-3.6-3.626,5.471,5.471,0,0,1-1.544-.1,1.385,1.385,0,0,1-1.005-1.594A1.341,1.341,0,0,1,119.068.058c1.943-.145,3.855-.107,5.5,1.174a6.108,6.108,0,0,1,2.468,4.858c.007.247,0,.494,0,.741l.059.006" transform="translate(-99.401 0)" fill="#1e4579"/>
    <path id="Path_139" data-name="Path 139" d="M120.5,126.953c-.4,0-.808.021-1.209,0a1.424,1.424,0,0,1-1.438-1.553,1.463,1.463,0,0,1,1.52-1.491c.507-.011,1.014,0,1.522,0a3.082,3.082,0,0,0,3.11-3.085c.011-.546-.008-1.092.011-1.638a1.516,1.516,0,0,1,3.008-.11,9.679,9.679,0,0,1-.252,3.556,5.983,5.983,0,0,1-4.342,4.128,15.627,15.627,0,0,1-1.921.271l-.008-.07" transform="translate(-99.409 -99.357)" fill="#1e4579"/>
    <path id="Path_140" data-name="Path 140" d="M6.655,126.965a6.1,6.1,0,0,1-5.58-2.873,5.854,5.854,0,0,1-.949-3.205c-.006-.533-.01-1.066,0-1.6A1.424,1.424,0,0,1,1.667,117.8a1.4,1.4,0,0,1,1.5,1.483,18.267,18.267,0,0,0,.111,2.212,2.96,2.96,0,0,0,2.788,2.4c.6.024,1.2,0,1.794.017A1.451,1.451,0,0,1,9.3,125.107a1.488,1.488,0,0,1-.794,1.7,2.448,2.448,0,0,1-.794.153c-.349.025-.7.006-1.053.006" transform="translate(-0.102 -99.362)" fill="#1e4579"/>
    <path id="Path_141" data-name="Path 141" d="M6.636.132c.4,0,.808-.028,1.208.006A1.409,1.409,0,0,1,9.217,1.706a1.454,1.454,0,0,1-1.469,1.46c-.533.019-1.067,0-1.6.008A3.084,3.084,0,0,0,3.067,6.249c-.009.52,0,1.04-.007,1.56A1.375,1.375,0,0,1,1.713,9.277,1.435,1.435,0,0,1,.07,8.059,7.755,7.755,0,0,1,.812,3.251a6.018,6.018,0,0,1,5-3.116C5.908.129,6,.122,6.089.121c.182,0,.364,0,.546,0V.132" transform="translate(0 -0.101)" fill="#1e4579"/>
    <path id="Path_142" data-name="Path 142" d="M30.488,45.356c.112-.262.342-.129.513-.133,1.024-.025.892.12.9-.894.005-1.158,0-2.316,0-3.475A1.54,1.54,0,0,1,33.542,39.2c4.035,0,8.07.015,12.1-.013a1.73,1.73,0,0,1,1.581,1.589c-.065,1.324-.006,2.654-.025,3.981-.005.366.12.471.474.47.26,0,.566-.151.788.127-.168.009-.336.024-.5.024q-7.723,0-15.447-.013c-.675,0-1.351-.006-2.026-.01" transform="translate(-25.717 -33.054)" fill="#4270b7" opacity="0.811"/>
    <path id="Path_143" data-name="Path 143" d="M54.035,98.126a1.711,1.711,0,0,0-.085.572c0,1.274-.026,2.548.01,3.821a1.606,1.606,0,0,1-1.783,1.762h-9.01c-.9,0-1.795.015-2.691-.005a1.736,1.736,0,0,1-1.608-.741,1.494,1.494,0,0,1-.228-.81c.005-1.274,0-2.548.006-3.822a1.427,1.427,0,0,0-.165-.779,1.326,1.326,0,0,1,.154-.017l14.543.007c.286,0,.571.008.856.012" transform="translate(-32.459 -82.754)" fill="#4270b7" opacity="0.811"/>
    <path id="Path_144" data-name="Path 144" d="M38.546,80.331c-.285,0-.571-.013-.856-.013L23.146,80.31a1.265,1.265,0,0,0-.154.018l-1.84-.038a.916.916,0,0,0-.5-.31l-.341-.416c.013-.05-.006-.077-.052-.085l0,0a2.983,2.983,0,0,1-.1-1.36,1.89,1.89,0,0,1,.495-.753c.141.008.213-.092.276-.206l.189-.064a.121.121,0,0,0,.164-.056l.463-.021c.675,0,1.351.01,2.026.01q7.723.008,15.447.014c.168,0,.336-.017.5-.026a1.6,1.6,0,0,1,1.608.781,1.185,1.185,0,0,1,.189.5v.757l-.092.331a.161.161,0,0,0-.086.169,2.525,2.525,0,0,1-.609.6.124.124,0,0,0-.157.079,13.335,13.335,0,0,1-2.027.1" transform="translate(-16.97 -64.959)" fill="#b0c6e7"/>
  </g>
</svg>
