<svg xmlns="http://www.w3.org/2000/svg" width="26.997" height="31.5" viewBox="0 0 26.997 31.5">
  <g id="Icon_ionic-md-finger-print" data-name="Icon ionic-md-finger-print" transform="translate(-4.5 -2.25)">
    <path id="Path_1382" data-name="Path 1382" d="M5.491,14.456a.985.985,0,0,1-.858-1.477C5.885,10.87,9.689,5.941,18,5.941a15.721,15.721,0,0,1,9.38,2.841,15.913,15.913,0,0,1,3.945,4.141.977.977,0,0,1-.26,1.364,1,1,0,0,1-1.378-.26A13.3,13.3,0,0,0,18,7.9c-7.284,0-10.575,4.247-11.651,6.068A.971.971,0,0,1,5.491,14.456Z" fill="#fff"/>
    <path id="Path_1383" data-name="Path 1383" d="M22.184,33.75a.98.98,0,0,1-.246-.028c-6.026-1.512-8.276-7.6-8.367-7.854l-.014-.056c-.049-.176-1.259-4.352.6-6.8a4.554,4.554,0,0,1,3.853-1.687,4.105,4.105,0,0,1,3.523,1.533,7.674,7.674,0,0,1,1.16,2.89c.527,2.088.907,3.185,3.1,3.3a2.265,2.265,0,0,0,1.955-1.005,5.881,5.881,0,0,0,.408-5.379C27.211,16.2,23.878,11.566,18,11.566a10.308,10.308,0,0,0-6.666,2.348A10.821,10.821,0,0,0,8,18.823c-1.083,3.431.337,8.824.352,8.873a.975.975,0,0,1-.7,1.2,1,1,0,0,1-1.216-.7c-.063-.246-1.582-6-.33-9.963a12.5,12.5,0,0,1,19.891-5.723A13.718,13.718,0,0,1,30,17.951a7.772,7.772,0,0,1-.661,7.228,4.212,4.212,0,0,1-3.656,1.814c-3.755-.19-4.43-2.841-4.922-4.774-.506-1.983-.83-2.939-2.763-2.939a2.65,2.65,0,0,0-2.271.907,4.792,4.792,0,0,0-.612,3.094,10.1,10.1,0,0,0,.33,1.955c.155.394,2.166,5.379,6.982,6.588a.977.977,0,0,1,.717,1.188A1,1,0,0,1,22.184,33.75Z" fill="#fff"/>
    <path id="Path_1384" data-name="Path 1384" d="M14.449,33.3a1,1,0,0,1-.724-.309,15.8,15.8,0,0,1-4.289-9V23.97a10.5,10.5,0,0,1,2.2-8.03A8.15,8.15,0,0,1,18,13.373,7.9,7.9,0,0,1,25.249,17.7a12.155,12.155,0,0,1,1.364,4.184.993.993,0,0,1-1.976.2h0a10.178,10.178,0,0,0-1.16-3.495,5.931,5.931,0,0,0-5.484-3.255,6.237,6.237,0,0,0-4.88,1.905,8.638,8.638,0,0,0-1.723,6.483,13.866,13.866,0,0,0,3.776,7.931.973.973,0,0,1-.049,1.385A1,1,0,0,1,14.449,33.3Z" fill="#fff"/>
    <path id="Path_1385" data-name="Path 1385" d="M25.559,30.48a8.177,8.177,0,0,1-5.337-1.765A9.853,9.853,0,0,1,17,22.38a.991.991,0,0,1,1.976-.155,7.981,7.981,0,0,0,2.517,4.985,6.819,6.819,0,0,0,5.238,1.237.988.988,0,0,1,1.1.865.976.976,0,0,1-.872,1.083A12.035,12.035,0,0,1,25.559,30.48Z" fill="#fff"/>
    <path id="Path_1386" data-name="Path 1386" d="M27.225,4.4C26.4,3.86,23.484,2.25,18,2.25c-5.759,0-8.684,1.779-9.33,2.229a.768.768,0,0,0-.12.091.022.022,0,0,1-.014.007h0A.976.976,0,0,0,9.2,6.286,1,1,0,0,0,9.773,6.1h0l-.007.007c.028-.021,2.552-1.9,8.234-1.9s8.205,1.884,8.234,1.9L26.227,6.1l.014-.014A.985.985,0,1,0,27.225,4.4Z" fill="#fff"/>
  </g>
</svg>
