<svg xmlns="http://www.w3.org/2000/svg" width="31.002" height="32" viewBox="0 0 31.002 32"><defs><style>.a{fill:#1e4579;}</style></defs><path class="a" d="M8.166,1033.478a.827.827,0,0,0-.818.819v1.463a7.5,7.5,0,0,0-1.487.611l-1.033-1.031a.828.828,0,0,0-1.158,0l-1.807,1.807a.83.83,0,0,0,0,1.16L2.9,1039.34a7.5,7.5,0,0,0-.615,1.482H.821a.83.83,0,0,0-.821.82v2.555a.83.83,0,0,0,.82.82H2.281a7.439,7.439,0,0,0,.614,1.485l-1.032,1.031a.83.83,0,0,0,0,1.16L3.67,1050.5a.828.828,0,0,0,1.158,0l1.035-1.033a7.52,7.52,0,0,0,1.485.615v1.461a.827.827,0,0,0,.818.818h2.557a.827.827,0,0,0,.818-.818v-1.463a7.515,7.515,0,0,0,1.486-.611l1.032,1.031a.83.83,0,0,0,1.16,0l1.806-1.807a.831.831,0,0,0,0-1.16l-1.033-1.033a7.465,7.465,0,0,0,.615-1.482h1.461a.83.83,0,0,0,.82-.82v-2.555a.83.83,0,0,0-.82-.82H16.605a7.5,7.5,0,0,0-.61-1.485l1.03-1.031h0a.829.829,0,0,0,0-1.159l-1.806-1.806a.83.83,0,0,0-1.16,0l-1.034,1.033a7.5,7.5,0,0,0-1.484-.615V1034.3a.827.827,0,0,0-.818-.819H8.166Zm.182,1h2.193v1.606a.5.5,0,0,0,.387.488,6.517,6.517,0,0,1,1.955.81.5.5,0,0,0,.619-.071l1.137-1.137,1.552,1.553-1.134,1.135a.5.5,0,0,0-.073.617,6.52,6.52,0,0,1,.809,1.957.5.5,0,0,0,.486.387h1.61v2.195H16.28a.5.5,0,0,0-.486.385,6.533,6.533,0,0,1-.813,1.957.5.5,0,0,0,.073.617l1.136,1.137-1.552,1.552-1.135-1.134a.5.5,0,0,0-.617-.072,6.531,6.531,0,0,1-1.96.808.5.5,0,0,0-.386.486v1.608H8.348v-1.606a.5.5,0,0,0-.387-.488,6.53,6.53,0,0,1-1.957-.81.5.5,0,0,0-.617.07l-1.139,1.138-1.553-1.552,1.137-1.135a.5.5,0,0,0,.072-.617A6.521,6.521,0,0,1,3.1,1044.4a.5.5,0,0,0-.487-.387H1v-2.195H2.607a.5.5,0,0,0,.487-.385,6.535,6.535,0,0,1,.812-1.957.5.5,0,0,0-.072-.617l-1.139-1.137,1.555-1.553,1.135,1.135a.5.5,0,0,0,.617.072,6.529,6.529,0,0,1,1.959-.809.5.5,0,0,0,.387-.486v-1.608Zm1.1,3.471a4.971,4.971,0,1,0,4.973,4.971,4.978,4.978,0,0,0-4.973-4.971Zm0,1a3.965,3.965,0,1,1-2.809,1.162,3.964,3.964,0,0,1,2.809-1.162Zm14.207-7.564-1.64.441H22c-.247.067-.265.344-.332.578l-.031-.02a.5.5,0,0,0,.011.054c-.024.108-.18.15-.15.262l.225.838a5.156,5.156,0,0,0-.676.517l-.746-.43a.722.722,0,0,0-.98.259l-.854,1.476a.721.721,0,0,0,.26.977h0l.751.433a5.121,5.121,0,0,0-.11.844l-.84.225a.723.723,0,0,0-.5.873l.442,1.65a.724.724,0,0,0,.875.5l.838-.225a5.149,5.149,0,0,0,.517.676l-.433.748a.721.721,0,0,0,.261.977L22,1043.9a.724.724,0,0,0,.975-.26l.433-.751a5.107,5.107,0,0,0,.844.11l.224.839a.725.725,0,0,0,.874.506h0L27,1043.9h0a.723.723,0,0,0,.5-.873l-.227-.838a5.168,5.168,0,0,0,.678-.517l.744.43a.724.724,0,0,0,.98-.258l.854-1.477a.72.72,0,0,0-.26-.977l-.752-.433a5.218,5.218,0,0,0,.112-.844l.838-.224h0a.724.724,0,0,0,.5-.875l-.442-1.649a.723.723,0,0,0-.873-.5l-.84.225a5.18,5.18,0,0,0-.515-.676l.433-.752a.724.724,0,0,0-.261-.975l-1.473-.847a.724.724,0,0,0-.984.26l-.432.748a5.241,5.241,0,0,0-.844-.112l-.224-.838a.723.723,0,0,0-.874-.505Zm-.02,1.04.237.878a.5.5,0,0,0,.5.37,4.2,4.2,0,0,1,1.35.179.5.5,0,0,0,.578-.229l.455-.787.984.568-.453.786a.5.5,0,0,0,.09.613,4.2,4.2,0,0,1,.828,1.082.5.5,0,0,0,.57.248l.88-.236.292,1.095-.877.237a.5.5,0,0,0-.37.5,4.229,4.229,0,0,1-.178,1.35.5.5,0,0,0,.228.577l.787.455-.568.983-.785-.453a.5.5,0,0,0-.614.09,4.2,4.2,0,0,1-1.082.828.5.5,0,0,0-.248.57l.235.88-1.1.292-.234-.877a.5.5,0,0,0-.5-.371,4.2,4.2,0,0,1-1.35-.178.5.5,0,0,0-.578.229l-.455.787-.984-.568.455-.786a.5.5,0,0,0-.092-.613,4.194,4.194,0,0,1-.826-1.082.5.5,0,0,0-.57-.248l-.88.236-.293-1.095.877-.237a.5.5,0,0,0,.37-.5,4.2,4.2,0,0,1,.18-1.35.5.5,0,0,0-.23-.578l-.788-.455.57-.982.783.453a.5.5,0,0,0,.615-.09,4.2,4.2,0,0,1,1.082-.828.5.5,0,0,0,.248-.57l-.236-.88,1.1-.292Zm1.349,1.983a3.488,3.488,0,1,0,2.892,2.551,3.47,3.47,0,0,0-2.892-2.551Zm-1.122,1.051a2.48,2.48,0,1,1-1.513,1.157,2.483,2.483,0,0,1,1.513-1.157Zm-9.386-15.1a.743.743,0,0,0-.735.735v.986a5.805,5.805,0,0,0-.924.38l-.695-.7a.747.747,0,0,0-1.039,0l-1.326,1.324a.746.746,0,0,0,0,1.039l.695.7a5.625,5.625,0,0,0-.383.92H9.082a.745.745,0,0,0-.734.734v1.875a.745.745,0,0,0,.734.735h.986a5.609,5.609,0,0,0,.38.922l-.7.695a.745.745,0,0,0,0,1.039l1.324,1.326a.748.748,0,0,0,1.04,0l.694-.695a5.735,5.735,0,0,0,.924.383v.984a.745.745,0,0,0,.735.734h1.873a.742.742,0,0,0,.734-.734v-.986a5.688,5.688,0,0,0,.924-.381l.695.695a.744.744,0,0,0,1.04,0l1.324-1.324h0a.746.746,0,0,0,0-1.04l-.7-.694a5.62,5.62,0,0,0,.383-.922h.984a.743.743,0,0,0,.735-.735v-1.875a.744.744,0,0,0-.735-.734h-.986a5.625,5.625,0,0,0-.38-.922l.7-.695h0a.746.746,0,0,0,0-1.04l-1.325-1.323a.744.744,0,0,0-1.039,0l-.7.7a5.634,5.634,0,0,0-.922-.383v-.984a.745.745,0,0,0-.734-.735H14.47Zm.265,1h1.342v1.047a.5.5,0,0,0,.387.487,4.618,4.618,0,0,1,1.394.578.5.5,0,0,0,.618-.07l.74-.74.949.949-.738.738a.5.5,0,0,0-.07.617,4.667,4.667,0,0,1,.574,1.4.5.5,0,0,0,.488.386h1.047v1.344H20.42a.5.5,0,0,0-.486.385,4.663,4.663,0,0,1-.579,1.4.5.5,0,0,0,.07.617l.741.74-.95.95-.737-.74a.5.5,0,0,0-.618-.07,4.656,4.656,0,0,1-1.4.577.5.5,0,0,0-.387.486v1.047H14.736v-1.047a.5.5,0,0,0-.386-.486,4.651,4.651,0,0,1-1.4-.578.5.5,0,0,0-.617.07l-.74.74-.952-.949.739-.738a.5.5,0,0,0,.072-.617,4.62,4.62,0,0,1-.576-1.4.5.5,0,0,0-.486-.387H9.348v-1.343h1.045a.5.5,0,0,0,.488-.385,4.635,4.635,0,0,1,.578-1.4.5.5,0,0,0-.072-.617l-.74-.74.95-.95.739.739a.5.5,0,0,0,.617.07,4.654,4.654,0,0,1,1.4-.576.5.5,0,0,0,.386-.487v-1.046Zm.67,2.28a3.78,3.78,0,1,0,3.78,3.779,3.787,3.787,0,0,0-3.78-3.779Zm0,1a2.783,2.783,0,1,1-2.779,2.779,2.772,2.772,0,0,1,2.779-2.779Z" transform="translate(0 -1020.361)"/></svg>