<svg xmlns="http://www.w3.org/2000/svg" xmlns:xlink="http://www.w3.org/1999/xlink" width="28.35" height="27.213" viewBox="0 0 28.35 27.213"><defs><clipPath id="a"><rect width="28.35" height="27.213" fill="none"/></clipPath></defs><g transform="translate(0.325)"><g transform="translate(-0.325)" clip-path="url(#a)"><path d="M81.809,106.693H81.8a.507.507,0,0,0-.213-.725l-.019-.01-.281-.144c-.358-.185-.746-.32-1.116-.48s-.74-.326-1.107-.5c-.738-.343-1.48-.677-2.209-1.039a47.657,47.657,0,0,1-4.219-2.379q-.509-.321-1.01-.656-.25-.167-.5-.338l-.262-.181-.036-.025-.011-.008-.13-.092q-.981-.7-1.924-1.444a44.569,44.569,0,0,1-3.624-3.209q-.869-.859-1.69-1.764c-.276-.3-.56-.6-.84-.9q-.207-.222-.412-.447l-.007-.008-.007.007c-.412-.444-1.082-.083-1.082-.083h0a1.408,1.408,0,0,0-.182.169l-.387.419c-.269.291-.511.6-.761.911-.444.546-.89,1.09-1.318,1.65L57.171,97.1q-.651.85-1.276,1.718c-.182.253-.373.5-.547.762l-.032.048-.013.02a4.127,4.127,0,0,0-.341.831,0,0,0,0,0,0,0,2.714,2.714,0,0,0-.021.274h0a1.85,1.85,0,0,0,.231.783l0,0c.06.1.125.189.189.284q.173.255.35.507c.241.344.5.677.755,1.008q.8,1.02,1.663,1.993a37.988,37.988,0,0,0,3.5,3.471,44.1,44.1,0,0,0,3.952,3.058,40.145,40.145,0,0,0,4.219,2.549q1.114.581,2.256,1.1c.4.186.809.355,1.228.508.209.076.363.128.594.2l.071.023h.008a1.733,1.733,0,0,0,.784.01h.007a.3.3,0,0,0,.06-.013.771.771,0,0,0,.311-.195c.021-.021.041-.043.061-.067l.212-.251c.146-.173.277-.36.412-.542l.786-1.059c.945-1.272,1.877-2.552,2.809-3.833.478-.657.948-1.317,1.4-1.99.22-.326.448-.646.644-.987l.362-.628m-.988.4c-.3.318-.56.677-.835,1.015-1,1.225-1.93,2.506-2.884,3.765-.478.631-.947,1.268-1.419,1.9l-.708.953c-.133.179-.263.359-.385.546-.056.085-.112.17-.167.256a.6.6,0,0,0-.089.284l-.237-.136c-.361-.207-.719-.428-1.092-.615s-.75-.382-1.122-.58q-1.091-.581-2.151-1.215t-2.091-1.307q-.51-.333-1.011-.679l-.141-.1-.048-.033-.231-.164q-.25-.179-.5-.36a42.488,42.488,0,0,1-3.742-3.089,46.239,46.239,0,0,1-3.405-3.5l-.215-.248-.076-.089,0-.006-.02-.023h0l-.008-.009-.007-.009q-.2-.239-.4-.481-.392-.479-.772-.969c-.255-.33-.517-.654-.771-.984a4.126,4.126,0,0,0-.467-.568l-.094-.086c.121-.116.235-.24.346-.366.261-.3.5-.617.744-.925.881-1.1,1.717-2.238,2.566-3.364.43-.57.835-1.16,1.249-1.743.217-.306.434-.61.631-.93.075-.122.156-.242.229-.365q.384.5.781.981c.28.342.581.664.884.985q.836.888,1.72,1.731a45.479,45.479,0,0,0,7.813,5.959,46.281,46.281,0,0,0,4.3,2.28c.747.348,1.5.669,2.273.958q.606.227,1.217.439a5.753,5.753,0,0,0,.578.185l.351.079-.587.624" transform="translate(-53.528 -89.763)" fill="#fff"/><path d="M221.97,283.2h0a.325.325,0,0,0-.128-.069,1.817,1.817,0,0,1-.648-.2,1.7,1.7,0,0,1-.449-.493,1.459,1.459,0,0,1-.222-.735,1.763,1.763,0,0,1,.033-.372c.013-.072.039-.146.047-.218a.515.515,0,0,0-.041-.214.148.148,0,0,0-.108-.109.242.242,0,0,0-.066-.068,3.21,3.21,0,0,0-.551-.333q-.3-.128-.591-.264-.563-.26-1.113-.546-1.118-.581-2.183-1.259a28.629,28.629,0,0,1-3.987-3.08q-.521-.479-1.014-.987c-.326-.336-.637-.687-.981-1a.226.226,0,0,0-.3-.014h0a2.338,2.338,0,0,0-.425.205,2.335,2.335,0,0,1-.4.142,1.7,1.7,0,0,1-.8.012,2.4,2.4,0,0,1-1.342-.877.165.165,0,0,0-.2-.115,1.53,1.53,0,0,0-.751.574c-.2.235-.4.468-.6.707-.405.5-.8,1.007-1.172,1.529a.275.275,0,0,0,.071.4c.081.178.207.336.289.514a1.612,1.612,0,0,1,.172.736,2.086,2.086,0,0,1-.607,1.284.187.187,0,0,0-.05.184.244.244,0,0,0,.063.2c1.412,1.576,2.828,3.143,4.389,4.574a24.781,24.781,0,0,0,4.876,3.532,14.838,14.838,0,0,0,1.5.71,3.613,3.613,0,0,0,1.6.4.159.159,0,0,0,.131-.1l0,0c.2-.194.339-.435.547-.622a1.853,1.853,0,0,1,.731-.4,1.853,1.853,0,0,1,1.3.106.724.724,0,0,0,.395.12.251.251,0,0,0,.37,0,5.805,5.805,0,0,0,.714-.907l.628-.914c.2-.3.4-.6.6-.9a2.162,2.162,0,0,0,.423-1.018.12.12,0,0,0-.157-.109m-.771.733c-.224.3-.439.614-.652.925l-.605.887a7.3,7.3,0,0,0-.5.8,1.743,1.743,0,0,0-.773-.3,2.345,2.345,0,0,0-1.137.058,2.078,2.078,0,0,0-1.349,1.223,7.059,7.059,0,0,0-1.077-.519c-.45-.2-.89-.419-1.327-.646a21,21,0,0,1-2.449-1.5,35.886,35.886,0,0,1-4.627-4.018q-1.16-1.165-2.322-2.328a2,2,0,0,0,.743-1.462,1.8,1.8,0,0,0-.207-.978,1.621,1.621,0,0,0-.385-.492c.4-.412.781-.834,1.151-1.27q.311-.366.614-.738a2.8,2.8,0,0,0,.243-.336,2.291,2.291,0,0,0,1.368.958,2.4,2.4,0,0,0,1.083,0,1.872,1.872,0,0,0,.8-.367,14.059,14.059,0,0,0,1.513,1.681,22.918,22.918,0,0,0,1.9,1.692,25.609,25.609,0,0,0,4.357,2.809q.632.322,1.281.61.323.143.65.278a2.794,2.794,0,0,0,.571.165c-.017.046-.032.093-.045.138a1.758,1.758,0,0,0-.051.545,2.029,2.029,0,0,0,.32,1.007,2,2,0,0,0,1.131.883c-.079.093-.153.191-.226.29" transform="translate(-198.613 -265.589)" fill="#fff"/><path d="M739.515,364.922a20.716,20.716,0,0,0,3.456,1.621c.334.122.671.228,1.014.322.176.048.352.1.532.129a1.54,1.54,0,0,0,.53.02c.17-.024.146-.245.042-.323a2.95,2.95,0,0,0-.861-.368c-.289-.1-.575-.2-.862-.3q-.866-.3-1.7-.682a24,24,0,0,1-3.238-1.8c-.59-.387-1.173-.783-1.76-1.174-.146-.1-.3.115-.182.236a13.575,13.575,0,0,0,3.032,2.325" transform="translate(-717.519 -353.025)" fill="#fff"/><path d="M7.087,490.811c-.269-.239-.541-.475-.809-.716-.528-.476-1.054-.956-1.563-1.452a38.337,38.337,0,0,1-2.833-3.1c-.509-.62-1-1.252-1.479-1.9-.159-.217-.517-.023-.369.216a27.188,27.188,0,0,0,2.556,3.5,28.262,28.262,0,0,0,3.024,3.05c.312.264.626.528.952.773A3.77,3.77,0,0,0,7.6,491.8a.172.172,0,0,0,.192-.25,4,4,0,0,0-.707-.743" transform="translate(0 -471.122)" fill="#fff"/><path d="M112.53,5.188c.7-.8,1.415-1.6,2.1-2.413.341-.4.692-.8,1.022-1.212.164-.2.334-.406.486-.619a2.064,2.064,0,0,0,.406-.7c.023-.125-.084-.286-.23-.23a1.9,1.9,0,0,0-.593.481c-.188.193-.361.4-.537.6-.345.4-.671.819-1,1.229-.676.832-1.33,1.683-1.993,2.525-.187.237.133.577.34.34" transform="translate(-109.252 0.003)" fill="#fff"/><path d="M912.028,850.143a4.975,4.975,0,0,0-1,1.161l-.891,1.27c-.593.845-1.165,1.7-1.691,2.592-.115.193.167.428.32.247.665-.79,1.288-1.615,1.891-2.454l.905-1.261a4.932,4.932,0,0,0,.769-1.321c.051-.16-.157-.345-.3-.234" transform="translate(-885.077 -828.264)" fill="#fff"/><path d="M54.036,212.582l.618-.789a2.15,2.15,0,0,0,.513-.777.112.112,0,0,0-.162-.124,2.115,2.115,0,0,0-.576.727l-.555.837c-.064.1.089.219.162.125" transform="translate(-52.475 -205.458)" fill="#fff"/><path d="M1062.981,778.921a1.127,1.127,0,0,0-.392.471l-.336.566c-.126.212.182.377.322.189l.4-.531a1.071,1.071,0,0,0,.271-.545.175.175,0,0,0-.261-.15" transform="translate(-1034.928 -758.886)" fill="#fff"/><path d="M675.133,308.456c.183.07.309-.23.134-.317a1.451,1.451,0,0,1-.747-.722c-.058-.132-.275-.038-.232.1a1.469,1.469,0,0,0,.846.941" transform="translate(-656.955 -299.456)" fill="#fff"/><path d="M332.4,836.265a8.52,8.52,0,0,0-.728-.5c-.139-.09-.285.11-.174.225a8.528,8.528,0,0,0,.642.628c.131.11.424.412.591.195s-.2-.442-.332-.552" transform="translate(-322.938 -814.27)" fill="#fff"/><path d="M408.043,527.421a2.185,2.185,0,0,1-.5-.021,1.314,1.314,0,0,1-.341-.113.475.475,0,0,1-.09-.815,7.975,7.975,0,0,1,.934-.585l.113-.066c-.066-.048-.134-.1-.108-.182a.337.337,0,0,1,.2-.2c.05-.023.089.022.118.047a.3.3,0,0,0,.4.01c.3-.178.619-.337.93-.505.033-.018.061-.045.1-.02a2.576,2.576,0,0,1,.322.187c.115.093.1.186-.028.249-.3.146-.611.29-.916.435-.033.016-.066.033-.106.053.062.054.12.1.172.15s.074.108.013.156-.091.151-.2.09a1.4,1.4,0,0,1-.191-.1.331.331,0,0,0-.426.007,5.377,5.377,0,0,0-.744.484c-.173.15-.172.248.066.363a1.261,1.261,0,0,0,.431.079.116.116,0,0,0,.089-.037" transform="translate(-396.46 -511.472)" fill="#fff"/><path d="M442.556,535.827c.241.133.274.311-.029.432-.234.093-.458.207-.682.322-.061.031-.082.048-.031.116a1.108,1.108,0,0,1,.237.669.526.526,0,0,1-.3.5.632.632,0,0,1-.874-.105.328.328,0,0,1-.146-.323c.027-.136.135-.19.259-.22a.834.834,0,0,0,.214-.068c.142-.078.15-.2.016-.289a.273.273,0,0,0-.09-.045,1.247,1.247,0,0,0-1.066.174c-.2.147-.212.245-.062.441.082.107.175.206.259.312a1.037,1.037,0,0,1-.656,1.726,1.924,1.924,0,0,1-1.188-.154c-.057-.026-.083-.021-.117.029a1.789,1.789,0,0,1-.768.531.217.217,0,0,1-.176-.018,1.248,1.248,0,0,1-.338-.2.171.171,0,0,1,.014-.3,7.373,7.373,0,0,1,.628-.4c.121-.07.121-.07.032-.171a1.2,1.2,0,0,1-.328-.738.636.636,0,0,1,.4-.654,1.02,1.02,0,0,1,1.076.176.478.478,0,0,1,.068.636c-.031.047-.05.051-.094.016a1.2,1.2,0,0,0-.362-.2.74.74,0,0,0-.153-.035.237.237,0,0,0-.248.12.254.254,0,0,0,0,.3.8.8,0,0,0,.349.277,1.066,1.066,0,0,0,1.16-.213.352.352,0,0,0,.044-.464,3.686,3.686,0,0,0-.431-.49c-.044-.052-.09-.1-.13-.156a.573.573,0,0,1,.082-.861,1.8,1.8,0,0,1,1.22-.452,1.93,1.93,0,0,1,.845.164.1.1,0,0,0,.135-.021,3.414,3.414,0,0,1,.8-.5.247.247,0,0,1,.208.014.85.85,0,0,1,.221.126" transform="translate(-425.707 -521.904)" fill="#fff"/></g></g></svg>