<svg id="white_t_logo_upper" data-name="white t$ logo upper" xmlns="http://www.w3.org/2000/svg" xmlns:xlink="http://www.w3.org/1999/xlink" width="79.99" height="100" viewBox="0 0 79.99 100">
  <defs>
    <clipPath id="clip-path">
      <rect id="Rectangle_1523" data-name="Rectangle 1523" width="79.99" height="100" fill="none"/>
    </clipPath>
  </defs>
  <g id="Group_241" data-name="Group 241" clip-path="url(#clip-path)">
    <path id="Path_132" data-name="Path 132" d="M21.079,241.871a34.536,34.536,0,0,1-6.695,4.292A20.86,20.86,0,0,1,8.943,247.8a7.511,7.511,0,0,1-8.581-9.725c1.683-5.583,4.331-10.773,6.755-16.052.27-.587.535-1.176.856-1.883-1.291-.013-2.62-.04-3.051-1.38a5.334,5.334,0,0,1,.852-4.414c.447-.748,1.353-.527,1.957-.464,2.805.294,4.183-1.079,5.3-3.519,2.314-5.067,4.943-9.992,7.432-14.98.263-.527.383-1.132,1.147-1.188a41.2,41.2,0,0,1,5.867-.506c2.329.161,3.032,1.462,1.9,3.478-2.617,4.656-5.263,9.294-7.894,13.942-.286.505-.549,1.024-.885,1.654,1.293.13,2.452.191,3.59.377,1.033.169,1.939.725,1.589,1.907-.324,1.093.2,2.781-1.762,2.984a22.242,22.242,0,0,1-3.347.5c-2.97-.161-4.357,1.453-5.438,3.961-1.852,4.3-4.087,8.432-5.222,13.018-.868,3.511.035,4.777,4.156,4.086,2.288-.384,4.271-1.747,6.288-2.891a1.829,1.829,0,0,0,.817-1.3" transform="translate(0 -167.75)" fill="#fff"/>
    <path id="Path_133" data-name="Path 133" d="M209.515.066c4.325-.463,6.368,1.537,3.553,5.848-2.174,3.328-4.045,6.843-5.891,10.368-.5.961-.626,1.369.65,1.789a17.5,17.5,0,0,1,9.143,6.5,8.321,8.321,0,0,1,.681,9.217c-2.944,5.817-5.266,7.125-12.262,6.584-2.055-.159-3.924-.843-4.816-2.851s.02-3.685,1.352-5.2a13.233,13.233,0,0,0,2.15-2.831c1.129-2.309.15-3.9-2.422-3.89a4.35,4.35,0,0,0-1.581.238c-5.7,2.314-10.158,5.949-12.2,11.938-1.274,3.732-.525,5.093,3.2,6.273,2.035.644,4.138,1.072,6.187,1.677,14.808,4.37,15.775,19.384,7.2,28.288a30.4,30.4,0,0,1-16.759,8.81c-.979.184-1.264.476-1.249,1.442.082,5.259-2.744,9.48-5.116,13.844A3.433,3.433,0,0,1,178.9,99.47a19.676,19.676,0,0,1-6.214.458c-2.363-.2-3.331-1.739-2.54-4.01a116.67,116.67,0,0,1,4.53-10.825c.93-2,.928-2-1.144-2.5a19.005,19.005,0,0,1-10.945-6.569,10.058,10.058,0,0,1-.729-12.116c3.186-5.231,9.7-8.383,15.506-7.5a7.547,7.547,0,0,1,6.653,7.608c.023.887-.179,1.107-1.067,1.053a18.979,18.979,0,0,0-6.543.652,11.718,11.718,0,0,0-2.3.935,3.75,3.75,0,0,0-2.123,3.8,4.013,4.013,0,0,0,2.728,3.814,12.648,12.648,0,0,0,7.036.414c6.612-1.388,12.418-7.281,13.071-13.292.343-3.158-.749-5.06-3.652-6.4-3.182-1.47-6.7-1.539-10.025-2.416-1.034-.272-2.088-.487-3.1-.828-5.893-1.994-8.075-5.784-6.759-11.875,1.561-7.225,5.871-12.612,11.67-16.93a30.519,30.519,0,0,1,12.424-5.56,1.632,1.632,0,0,0,1.562-1.5c1.08-4.913,3.4-9.339,5.755-13.734a3.906,3.906,0,0,1,2.823-1.7,13.392,13.392,0,0,1,3.994-.381" transform="translate(-138.739 0)" fill="#fff"/>
  </g>
</svg>
