<svg xmlns="http://www.w3.org/2000/svg" xmlns:xlink="http://www.w3.org/1999/xlink" width="59.513" height="52.379" viewBox="0 0 59.513 52.379"><defs><filter id="a" x="0" y="0" width="59.513" height="52.379" filterUnits="userSpaceOnUse"><feOffset dy="3" input="SourceAlpha"/><feGaussianBlur stdDeviation="3" result="b"/><feFlood flood-opacity="0.161"/><feComposite operator="in" in2="b"/><feComposite in="SourceGraphic"/></filter></defs><g transform="matrix(1, 0, 0, 1, 0, 0)" filter="url(#a)"><path d="M41.431,8h6L34.945,20.365a11.667,11.667,0,0,1-16.377,0L6.073,8h6.009l9.486,9.388a7.381,7.381,0,0,0,10.37,0ZM12.009,42.379H6L18.568,29.94a11.667,11.667,0,0,1,16.377,0L47.513,42.377H41.5l-9.558-9.469a7.381,7.381,0,0,0-10.37,0l-9.569,9.471Z" transform="translate(3 -2)" fill="#fff"/></g></svg>